<mxfile host="app.diagrams.net" modified="2024-07-12T05:00:26.321Z" agent="Mozilla/5.0 (Windows NT 10.0; Win64; x64) AppleWebKit/537.36 (KHTML, like Gecko) Chrome/126.0.0.0 Safari/537.36 Edg/126.0.0.0" etag="4rPdCZKCKUMZmRLyK0sC" version="24.6.4" type="github">
  <diagram name="第 1 页" id="lVx_NDag_Fm_iDuRv4t2">
    <mxGraphModel dx="2153" dy="1135" grid="1" gridSize="10" guides="1" tooltips="1" connect="1" arrows="1" fold="1" page="1" pageScale="1" pageWidth="1169" pageHeight="827" math="0" shadow="0">
      <root>
        <mxCell id="0" />
        <mxCell id="1" parent="0" />
        <mxCell id="HEigKu175-twUknDpUMa-1" value="" style="group;fontSize=16.5;strokeWidth=2;dashed=1;dashPattern=1 2;" vertex="1" connectable="0" parent="1">
          <mxGeometry x="218.37" y="170.0022807017544" width="87.89187110528042" height="73.68824561403503" as="geometry" />
        </mxCell>
        <mxCell id="HEigKu175-twUknDpUMa-2" value="C" style="ellipse;whiteSpace=wrap;html=1;aspect=fixed;fillColor=#dae8fc;strokeColor=#6c8ebf;fontSize=16.5;strokeWidth=1.5;" vertex="1" parent="HEigKu175-twUknDpUMa-1">
          <mxGeometry x="21.3565439488357" width="42" height="42" as="geometry" />
        </mxCell>
        <mxCell id="HEigKu175-twUknDpUMa-3" value="" style="group;fontSize=16.5;strokeWidth=2;dashed=1;dashPattern=1 2;" vertex="1" connectable="0" parent="1">
          <mxGeometry x="848.3747195801901" y="560.0042105263157" width="158.3652804198099" height="113.47578947368433" as="geometry" />
        </mxCell>
        <mxCell id="HEigKu175-twUknDpUMa-4" value="&lt;font style=&quot;font-size: 16.5px;&quot;&gt;F&lt;/font&gt;" style="ellipse;whiteSpace=wrap;html=1;aspect=fixed;fillColor=#dae8fc;strokeColor=#6c8ebf;fontSize=16.5;strokeWidth=1.5;" vertex="1" parent="HEigKu175-twUknDpUMa-3">
          <mxGeometry x="22.812313431894687" width="42" height="42" as="geometry" />
        </mxCell>
        <mxCell id="HEigKu175-twUknDpUMa-5" value="" style="group;fontSize=16.5;strokeWidth=2;dashed=1;dashPattern=1 2;" vertex="1" connectable="0" parent="HEigKu175-twUknDpUMa-3">
          <mxGeometry x="-160.0047195801901" y="41.99578947368434" width="273.19" height="65" as="geometry" />
        </mxCell>
        <mxCell id="HEigKu175-twUknDpUMa-66" value="&lt;font style=&quot;font-size: 22px;&quot;&gt;Data Requesting&amp;nbsp;&lt;br&gt;Interest Packet&lt;/font&gt;" style="text;html=1;strokeColor=none;fillColor=none;align=center;verticalAlign=middle;whiteSpace=wrap;rounded=0;fontSize=16.5;fontColor=#000000;fontStyle=3;strokeWidth=2;dashed=1;dashPattern=1 2;" vertex="1" parent="HEigKu175-twUknDpUMa-3">
          <mxGeometry x="-188.37471958019012" y="59.49578947368434" width="186.32" height="30" as="geometry" />
        </mxCell>
        <mxCell id="HEigKu175-twUknDpUMa-7" value="" style="group;fontSize=16.5;strokeWidth=2;" vertex="1" connectable="0" parent="1">
          <mxGeometry x="248.37088717612332" y="538.4829824561402" width="87.88701213512627" height="71.98807017543865" as="geometry" />
        </mxCell>
        <mxCell id="HEigKu175-twUknDpUMa-8" value="&lt;font style=&quot;font-size: 16.5px;&quot;&gt;E&lt;/font&gt;" style="ellipse;whiteSpace=wrap;html=1;aspect=fixed;fillColor=#dae8fc;strokeColor=#6c8ebf;fontSize=16.5;strokeWidth=1.5;" vertex="1" parent="HEigKu175-twUknDpUMa-7">
          <mxGeometry x="22.82132748442114" width="42" height="42" as="geometry" />
        </mxCell>
        <mxCell id="HEigKu175-twUknDpUMa-9" value="" style="endArrow=classicThin;dashed=1;html=1;rounded=0;fontColor=#FF3333;curved=1;startArrow=none;startFill=0;fillColor=#fa6800;strokeColor=#C73500;exitX=1;exitY=0;exitDx=0;exitDy=0;fontSize=16.5;endFill=1;entryX=0.937;entryY=0.289;entryDx=0;entryDy=0;entryPerimeter=0;strokeWidth=2;dashPattern=1 2;" edge="1" parent="1" source="HEigKu175-twUknDpUMa-23" target="HEigKu175-twUknDpUMa-2">
          <mxGeometry width="50" height="50" relative="1" as="geometry">
            <mxPoint x="689.2859339127583" y="317.36842105263156" as="sourcePoint" />
            <mxPoint x="323.09005001639883" y="214.21052631578948" as="targetPoint" />
            <Array as="points">
              <mxPoint x="768.37" y="180" />
            </Array>
          </mxGeometry>
        </mxCell>
        <mxCell id="HEigKu175-twUknDpUMa-10" value="" style="endArrow=classicThin;dashed=1;html=1;rounded=0;fontColor=#FF3333;curved=1;startArrow=none;startFill=0;endFill=1;fillColor=#fa6800;strokeColor=#C73500;fontSize=16.5;entryX=0.5;entryY=1;entryDx=0;entryDy=0;strokeWidth=2;dashPattern=1 2;exitX=0;exitY=0;exitDx=0;exitDy=0;" edge="1" parent="1" source="HEigKu175-twUknDpUMa-8" target="HEigKu175-twUknDpUMa-2">
          <mxGeometry width="50" height="50" relative="1" as="geometry">
            <mxPoint x="268.37" y="550" as="sourcePoint" />
            <mxPoint x="342.37" y="310" as="targetPoint" />
            <Array as="points">
              <mxPoint x="118.37" y="380" />
            </Array>
          </mxGeometry>
        </mxCell>
        <mxCell id="HEigKu175-twUknDpUMa-11" value="" style="endArrow=none;dashed=1;html=1;rounded=0;fontColor=#FF3333;curved=1;startArrow=classicThin;startFill=1;endFill=0;fillColor=#1ba1e2;strokeColor=#006EAF;fontSize=16.5;exitX=0.965;exitY=0.358;exitDx=0;exitDy=0;exitPerimeter=0;entryX=1;entryY=1;entryDx=0;entryDy=0;strokeWidth=2;dashPattern=1 2;" edge="1" parent="1" source="HEigKu175-twUknDpUMa-8" target="HEigKu175-twUknDpUMa-23">
          <mxGeometry width="50" height="50" relative="1" as="geometry">
            <mxPoint x="352.37" y="480" as="sourcePoint" />
            <mxPoint x="772.37" y="341" as="targetPoint" />
            <Array as="points">
              <mxPoint x="688.37" y="540" />
            </Array>
          </mxGeometry>
        </mxCell>
        <mxCell id="HEigKu175-twUknDpUMa-12" value="" style="endArrow=classicThin;dashed=1;html=1;rounded=0;fontColor=#FF3333;curved=1;exitX=0.5;exitY=0;exitDx=0;exitDy=0;startArrow=none;startFill=0;endFill=1;fillColor=#fa6800;strokeColor=#C73500;fontSize=16.5;strokeWidth=2;dashPattern=1 2;" edge="1" parent="1" source="HEigKu175-twUknDpUMa-39" target="HEigKu175-twUknDpUMa-2">
          <mxGeometry width="50" height="50" relative="1" as="geometry">
            <mxPoint x="513.5119096425058" y="405.7894736842105" as="sourcePoint" />
            <mxPoint x="586.7510864217777" y="332.1052631578947" as="targetPoint" />
            <Array as="points">
              <mxPoint x="528.37" y="210" />
            </Array>
          </mxGeometry>
        </mxCell>
        <mxCell id="HEigKu175-twUknDpUMa-13" value="" style="endArrow=none;dashed=1;html=1;rounded=0;fontColor=#FF3333;curved=1;exitX=1;exitY=0;exitDx=0;exitDy=0;fillColor=#1ba1e2;strokeColor=#006EAF;startArrow=classicThin;startFill=1;fontSize=16.5;strokeWidth=2;dashPattern=1 2;" edge="1" parent="1" source="HEigKu175-twUknDpUMa-8">
          <mxGeometry width="50" height="50" relative="1" as="geometry">
            <mxPoint x="396.3292267956707" y="523.6842105263157" as="sourcePoint" />
            <mxPoint x="578.37" y="340" as="targetPoint" />
            <Array as="points">
              <mxPoint x="548.37" y="490" />
            </Array>
          </mxGeometry>
        </mxCell>
        <mxCell id="HEigKu175-twUknDpUMa-14" value="" style="endArrow=none;dashed=1;html=1;rounded=0;fontColor=#FF3333;curved=1;exitX=1;exitY=0;exitDx=0;exitDy=0;entryX=0;entryY=0.5;entryDx=0;entryDy=0;fillColor=#fa6800;strokeColor=#C73500;endFill=0;fontSize=16.5;startArrow=classicThin;startFill=1;strokeWidth=2;dashPattern=1 2;" edge="1" parent="1" source="HEigKu175-twUknDpUMa-2" target="HEigKu175-twUknDpUMa-41">
          <mxGeometry width="50" height="50" relative="1" as="geometry">
            <mxPoint x="557.4554157100689" y="405.7894736842105" as="sourcePoint" />
            <mxPoint x="630.6945924893407" y="332.1052631578947" as="targetPoint" />
            <Array as="points">
              <mxPoint x="616.37" y="130" />
            </Array>
          </mxGeometry>
        </mxCell>
        <mxCell id="HEigKu175-twUknDpUMa-15" value="" style="endArrow=none;dashed=1;html=1;rounded=0;fontColor=#FF3333;curved=1;entryX=0;entryY=1;entryDx=0;entryDy=0;exitX=1;exitY=1;exitDx=0;exitDy=0;fillColor=#1ba1e2;strokeColor=#006EAF;endFill=0;fontSize=16.5;startArrow=classicThin;startFill=1;strokeWidth=2;dashPattern=1 2;" edge="1" parent="1" source="HEigKu175-twUknDpUMa-8" target="HEigKu175-twUknDpUMa-4">
          <mxGeometry width="50" height="50" relative="1" as="geometry">
            <mxPoint x="513.5119096425058" y="405.7894736842105" as="sourcePoint" />
            <mxPoint x="586.7510864217777" y="332.1052631578947" as="targetPoint" />
            <Array as="points">
              <mxPoint x="668.37" y="630" />
            </Array>
          </mxGeometry>
        </mxCell>
        <mxCell id="HEigKu175-twUknDpUMa-16" value="" style="endArrow=none;dashed=1;html=1;entryX=0;entryY=1;entryDx=0;entryDy=0;exitX=0;exitY=0.5;exitDx=0;exitDy=0;curved=1;startArrow=classicThin;startFill=1;fillColor=#1ba1e2;strokeColor=#006EAF;endFill=0;fontSize=16.5;strokeWidth=2;dashPattern=1 2;" edge="1" parent="1" source="HEigKu175-twUknDpUMa-8" target="HEigKu175-twUknDpUMa-2">
          <mxGeometry width="50" height="50" relative="1" as="geometry">
            <mxPoint x="222.37" y="350" as="sourcePoint" />
            <mxPoint x="272.37" y="300" as="targetPoint" />
            <Array as="points">
              <mxPoint x="88.37" y="400" />
            </Array>
          </mxGeometry>
        </mxCell>
        <mxCell id="HEigKu175-twUknDpUMa-17" value="" style="endArrow=none;dashed=1;html=1;rounded=0;fontColor=#FF3333;curved=1;fillColor=#1ba1e2;strokeColor=#006EAF;endFill=0;fontSize=16.5;startArrow=classicThin;startFill=1;entryX=0.5;entryY=1;entryDx=0;entryDy=0;exitX=0.917;exitY=0.715;exitDx=0;exitDy=0;exitPerimeter=0;strokeWidth=2;dashPattern=1 2;" edge="1" parent="1" source="HEigKu175-twUknDpUMa-8" target="HEigKu175-twUknDpUMa-41">
          <mxGeometry width="50" height="50" relative="1" as="geometry">
            <mxPoint x="352.37" y="490" as="sourcePoint" />
            <mxPoint x="918.37" y="210" as="targetPoint" />
            <Array as="points">
              <mxPoint x="918.37" y="540" />
            </Array>
          </mxGeometry>
        </mxCell>
        <mxCell id="HEigKu175-twUknDpUMa-18" value="" style="endArrow=none;dashed=1;html=1;rounded=0;fontColor=#FF3333;curved=1;exitX=0.7;exitY=0.953;exitDx=0;exitDy=0;fillColor=#fa6800;strokeColor=#C73500;endFill=0;fontSize=16.5;startArrow=classicThin;startFill=1;exitPerimeter=0;entryX=0;entryY=0.5;entryDx=0;entryDy=0;strokeWidth=2;dashPattern=1 2;" edge="1" parent="1" source="HEigKu175-twUknDpUMa-2" target="HEigKu175-twUknDpUMa-4">
          <mxGeometry width="50" height="50" relative="1" as="geometry">
            <mxPoint x="354.2914570654593" y="512.282224861055" as="sourcePoint" />
            <mxPoint x="828.37" y="580" as="targetPoint" />
            <Array as="points">
              <mxPoint x="328.37" y="420" />
              <mxPoint x="578.37" y="550" />
            </Array>
          </mxGeometry>
        </mxCell>
        <mxCell id="HEigKu175-twUknDpUMa-19" value="" style="group;fontSize=16.5;strokeWidth=2;dashed=1;dashPattern=1 2;" vertex="1" connectable="0" parent="1">
          <mxGeometry x="22.79" y="135.79000000000002" width="390" height="123.47999999999999" as="geometry" />
        </mxCell>
        <mxCell id="HEigKu175-twUknDpUMa-20" value="" style="group;fontSize=16.5;strokeWidth=2;dashed=1;dashPattern=1 2;" vertex="1" connectable="0" parent="HEigKu175-twUknDpUMa-19">
          <mxGeometry x="-11.63" width="390" height="123.47999999999999" as="geometry" />
        </mxCell>
        <mxCell id="HEigKu175-twUknDpUMa-21" value="&lt;font style=&quot;font-size: 22px;&quot;&gt;Data Requesting&amp;nbsp;&lt;br&gt;Interest Packet&lt;/font&gt;" style="text;html=1;strokeColor=none;fillColor=none;align=center;verticalAlign=middle;whiteSpace=wrap;rounded=0;fontSize=16.5;fontColor=#000000;fontStyle=3;strokeWidth=2;dashed=1;dashPattern=1 2;" vertex="1" parent="HEigKu175-twUknDpUMa-20">
          <mxGeometry x="23.68" width="186.32" height="30" as="geometry" />
        </mxCell>
        <mxCell id="HEigKu175-twUknDpUMa-22" value="&lt;span lang=&quot;EN-US&quot; style=&quot;font-family: &amp;quot;times new roman&amp;quot;, serif;&quot;&gt;&lt;font style=&quot;font-size: 20px;&quot;&gt;/min/nodeC/mingroupsync/&lt;br style=&quot;&quot;&gt;request/nodeE/app1/&lt;font color=&quot;#cc0000&quot; style=&quot;&quot;&gt;&lt;b style=&quot;&quot;&gt;16&lt;/b&gt;&lt;/font&gt;&lt;/font&gt;&lt;/span&gt;&lt;span style=&quot;font-size: 16.5px&quot;&gt;&lt;/span&gt;" style="text;html=1;strokeColor=none;fillColor=none;align=center;verticalAlign=middle;whiteSpace=wrap;rounded=0;fontSize=16.5;strokeWidth=2;dashed=1;dashPattern=1 2;" vertex="1" parent="HEigKu175-twUknDpUMa-20">
          <mxGeometry x="-48.16" y="40" width="330" height="53.48" as="geometry" />
        </mxCell>
        <mxCell id="HEigKu175-twUknDpUMa-23" value="&lt;font style=&quot;font-size: 16.5px;&quot;&gt;B&lt;/font&gt;" style="ellipse;whiteSpace=wrap;html=1;aspect=fixed;fontStyle=0;fillColor=#fff2cc;strokeColor=#d6b656;fontSize=16.5;strokeWidth=1.5;" vertex="1" parent="1">
          <mxGeometry x="772.3730766483277" y="319.9983" width="42" height="42" as="geometry" />
        </mxCell>
        <mxCell id="HEigKu175-twUknDpUMa-24" value="" style="group;fontSize=16.5;strokeWidth=2;dashed=1;dashPattern=1 2;" vertex="1" connectable="0" parent="1">
          <mxGeometry x="170" y="466.65" width="300.6" height="71.83000000000001" as="geometry" />
        </mxCell>
        <mxCell id="HEigKu175-twUknDpUMa-25" value="&lt;span lang=&quot;EN-US&quot; style=&quot;font-family: &amp;quot;times new roman&amp;quot;, serif;&quot;&gt;&lt;font style=&quot;font-size: 20px;&quot;&gt;/min/nodeE/mingroupsync/&lt;br style=&quot;&quot;&gt;request/nodeC/app1/&lt;font color=&quot;#cc0000&quot; style=&quot;&quot;&gt;&lt;b style=&quot;&quot;&gt;12&lt;/b&gt;&lt;/font&gt;&lt;/font&gt;&lt;/span&gt;&lt;span style=&quot;font-size: 16.5px&quot;&gt;&lt;/span&gt;" style="text;html=1;strokeColor=none;fillColor=none;align=center;verticalAlign=middle;whiteSpace=wrap;rounded=0;fontSize=16.5;strokeWidth=2;dashed=1;dashPattern=1 2;" vertex="1" parent="HEigKu175-twUknDpUMa-24">
          <mxGeometry x="-29.400000000000006" y="18.350000000000023" width="330" height="53.48" as="geometry" />
        </mxCell>
        <mxCell id="HEigKu175-twUknDpUMa-59" value="&lt;font style=&quot;font-size: 22px;&quot;&gt;Data Requesting&amp;nbsp;&lt;br&gt;Interest Packet&lt;/font&gt;" style="text;html=1;strokeColor=none;fillColor=none;align=center;verticalAlign=middle;whiteSpace=wrap;rounded=0;fontSize=16.5;fontColor=#000000;fontStyle=3;strokeWidth=2;dashed=1;dashPattern=1 2;" vertex="1" parent="HEigKu175-twUknDpUMa-24">
          <mxGeometry x="32.150000000000006" y="-15.649999999999977" width="186.32" height="30" as="geometry" />
        </mxCell>
        <mxCell id="HEigKu175-twUknDpUMa-27" value="" style="group;fontSize=16.5;strokeWidth=2;dashed=1;dashPattern=1 2;" vertex="1" connectable="0" parent="1">
          <mxGeometry x="428.37" y="340" width="273.19" height="51.47" as="geometry" />
        </mxCell>
        <mxCell id="HEigKu175-twUknDpUMa-28" value="" style="group;fontSize=16.5;strokeWidth=2;dashed=1;dashPattern=1 2;" vertex="1" connectable="0" parent="1">
          <mxGeometry x="336.26" y="253.57999999999998" width="301.6" height="69.42" as="geometry" />
        </mxCell>
        <mxCell id="HEigKu175-twUknDpUMa-29" value="" style="group;fontSize=16.5;strokeWidth=2;dashed=1;dashPattern=1 2;" vertex="1" connectable="0" parent="HEigKu175-twUknDpUMa-28">
          <mxGeometry width="301.6" height="69.42" as="geometry" />
        </mxCell>
        <mxCell id="HEigKu175-twUknDpUMa-30" value="&lt;span lang=&quot;EN-US&quot; style=&quot;font-family: &amp;quot;times new roman&amp;quot;, serif;&quot;&gt;&lt;font style=&quot;font-size: 20px;&quot;&gt;/min/nodeA/mingroupsync/&lt;br style=&quot;&quot;&gt;request/nodeC/app1/&lt;font color=&quot;#cc0000&quot; style=&quot;&quot;&gt;&lt;b style=&quot;&quot;&gt;12&lt;/b&gt;&lt;/font&gt;&lt;/font&gt;&lt;/span&gt;&lt;span style=&quot;font-size: 16.5px&quot;&gt;&lt;/span&gt;" style="text;html=1;strokeColor=none;fillColor=none;align=center;verticalAlign=middle;whiteSpace=wrap;rounded=0;fontSize=16.5;strokeWidth=2;dashed=1;dashPattern=1 2;" vertex="1" parent="HEigKu175-twUknDpUMa-29">
          <mxGeometry x="25.799999999999997" y="15.94" width="221.6" height="53.48" as="geometry" />
        </mxCell>
        <mxCell id="HEigKu175-twUknDpUMa-56" value="&lt;font style=&quot;font-size: 22px;&quot;&gt;Data Requesting&amp;nbsp;&lt;br&gt;Interest Packet&lt;/font&gt;" style="text;html=1;strokeColor=none;fillColor=none;align=center;verticalAlign=middle;whiteSpace=wrap;rounded=0;fontSize=16.5;fontColor=#000000;fontStyle=3;strokeWidth=2;dashed=1;dashPattern=1 2;" vertex="1" parent="HEigKu175-twUknDpUMa-29">
          <mxGeometry x="35.789999999999964" y="-19.99999999999997" width="186.32" height="30" as="geometry" />
        </mxCell>
        <mxCell id="HEigKu175-twUknDpUMa-32" value="" style="group;fontSize=16.5;strokeWidth=2;dashed=1;dashPattern=1 2;" vertex="1" connectable="0" parent="1">
          <mxGeometry x="563.06" y="342" width="299.31" height="91.47999999999999" as="geometry" />
        </mxCell>
        <mxCell id="HEigKu175-twUknDpUMa-40" value="&lt;span lang=&quot;EN-US&quot; style=&quot;font-family: &amp;quot;times new roman&amp;quot;, serif;&quot;&gt;&lt;font style=&quot;font-size: 20px;&quot;&gt;/min/nodeA/mingroupsync/&lt;br style=&quot;&quot;&gt;request/nodeE/app1/&lt;font color=&quot;#cc0000&quot; style=&quot;&quot;&gt;&lt;b style=&quot;&quot;&gt;16&lt;/b&gt;&lt;/font&gt;&lt;/font&gt;&lt;/span&gt;&lt;span style=&quot;font-size: 16.5px&quot;&gt;&lt;/span&gt;" style="text;html=1;strokeColor=none;fillColor=none;align=center;verticalAlign=middle;whiteSpace=wrap;rounded=0;fontSize=16.5;strokeWidth=2;dashed=1;dashPattern=1 2;" vertex="1" parent="HEigKu175-twUknDpUMa-32">
          <mxGeometry x="-233.05999999999995" y="38" width="330" height="53.48" as="geometry" />
        </mxCell>
        <mxCell id="HEigKu175-twUknDpUMa-35" value="" style="group;fontSize=16.5;strokeWidth=2;dashed=1;dashPattern=1 2;" vertex="1" connectable="0" parent="1">
          <mxGeometry x="558.37" y="110" width="303.1" height="73.47999999999999" as="geometry" />
        </mxCell>
        <mxCell id="HEigKu175-twUknDpUMa-36" value="" style="group;fontSize=16.5;strokeWidth=2;dashed=1;dashPattern=1 2;" vertex="1" connectable="0" parent="HEigKu175-twUknDpUMa-35">
          <mxGeometry x="3" y="7" width="300.1" height="73.47999999999999" as="geometry" />
        </mxCell>
        <mxCell id="HEigKu175-twUknDpUMa-37" value="&lt;span lang=&quot;EN-US&quot; style=&quot;font-family: &amp;quot;times new roman&amp;quot;, serif;&quot;&gt;&lt;font style=&quot;font-size: 20px;&quot;&gt;/min/nodeD/mingroupsync/&lt;br style=&quot;&quot;&gt;request/nodeC/app1/&lt;font color=&quot;#cc0000&quot; style=&quot;&quot;&gt;&lt;b style=&quot;&quot;&gt;12&lt;/b&gt;&lt;/font&gt;&lt;/font&gt;&lt;/span&gt;&lt;span style=&quot;font-size: 16.5px&quot;&gt;&lt;/span&gt;" style="text;html=1;strokeColor=none;fillColor=none;align=center;verticalAlign=middle;whiteSpace=wrap;rounded=0;fontSize=16.5;strokeWidth=2;dashed=1;dashPattern=1 2;" vertex="1" parent="HEigKu175-twUknDpUMa-36">
          <mxGeometry x="-29.899999999999977" y="20" width="330" height="53.48" as="geometry" />
        </mxCell>
        <mxCell id="HEigKu175-twUknDpUMa-39" value="A" style="ellipse;whiteSpace=wrap;html=1;aspect=fixed;fillColor=#ffe6cc;strokeColor=#d79b00;fontSize=16.5;strokeWidth=1.5;" vertex="1" parent="1">
          <mxGeometry x="558.3671544894921" y="299.9957894736841" width="42" height="42" as="geometry" />
        </mxCell>
        <mxCell id="HEigKu175-twUknDpUMa-41" value="&lt;font style=&quot;font-size: 16.5px;&quot;&gt;D&lt;/font&gt;" style="ellipse;whiteSpace=wrap;html=1;aspect=fixed;fillColor=#dae8fc;strokeColor=#6c8ebf;fontSize=16.5;strokeWidth=1.5;" vertex="1" parent="1">
          <mxGeometry x="885.1943153492948" y="176.53" width="42" height="42" as="geometry" />
        </mxCell>
        <mxCell id="HEigKu175-twUknDpUMa-42" value="" style="group;fontSize=16.5;strokeWidth=2;dashed=1;dashPattern=1 2;" vertex="1" connectable="0" parent="1">
          <mxGeometry x="578.37" y="257.06" width="450" height="72.94" as="geometry" />
        </mxCell>
        <mxCell id="HEigKu175-twUknDpUMa-43" value="&lt;span lang=&quot;EN-US&quot; style=&quot;font-family: &amp;quot;times new roman&amp;quot;, serif;&quot;&gt;&lt;font style=&quot;font-size: 20px;&quot;&gt;/min/nodeB/mingroupsync/&lt;br style=&quot;&quot;&gt;request/nodeC/app1/&lt;font color=&quot;#cc0000&quot; style=&quot;&quot;&gt;&lt;b style=&quot;&quot;&gt;12&lt;/b&gt;&lt;/font&gt;&lt;/font&gt;&lt;/span&gt;&lt;span style=&quot;font-size: 16.5px&quot;&gt;&lt;/span&gt;" style="text;html=1;strokeColor=none;fillColor=none;align=center;verticalAlign=middle;whiteSpace=wrap;rounded=0;fontSize=16.5;strokeWidth=2;dashed=1;dashPattern=1 2;" vertex="1" parent="HEigKu175-twUknDpUMa-42">
          <mxGeometry x="-40" y="19.85302123026674" width="330" height="53.086978769733264" as="geometry" />
        </mxCell>
        <mxCell id="HEigKu175-twUknDpUMa-63" value="&lt;font style=&quot;font-size: 22px;&quot;&gt;Data Requesting&amp;nbsp;&lt;br&gt;Interest Packet&lt;/font&gt;" style="text;html=1;strokeColor=none;fillColor=none;align=center;verticalAlign=middle;whiteSpace=wrap;rounded=0;fontSize=16.5;fontColor=#000000;fontStyle=3;strokeWidth=2;dashed=1;dashPattern=1 2;" vertex="1" parent="HEigKu175-twUknDpUMa-42">
          <mxGeometry x="251.63" y="6.520000000000039" width="186.32" height="30" as="geometry" />
        </mxCell>
        <mxCell id="HEigKu175-twUknDpUMa-44" value="&lt;span lang=&quot;EN-US&quot; style=&quot;font-family: &amp;quot;times new roman&amp;quot;, serif;&quot;&gt;&lt;font style=&quot;font-size: 20px;&quot;&gt;/min/nodeF/mingroupsync/&lt;br style=&quot;&quot;&gt;request/nodeC/app1/&lt;font color=&quot;#cc0000&quot; style=&quot;&quot;&gt;&lt;b style=&quot;&quot;&gt;12&lt;/b&gt;&lt;/font&gt;&lt;/font&gt;&lt;/span&gt;&lt;span style=&quot;font-size: 16.5px&quot;&gt;&lt;/span&gt;" style="text;html=1;strokeColor=none;fillColor=none;align=center;verticalAlign=middle;whiteSpace=wrap;rounded=0;fontSize=16.5;strokeWidth=2;dashed=1;dashPattern=1 2;" vertex="1" parent="1">
          <mxGeometry x="676.7399999999999" y="506.52" width="330" height="53.48" as="geometry" />
        </mxCell>
        <mxCell id="HEigKu175-twUknDpUMa-45" value="&lt;span lang=&quot;EN-US&quot; style=&quot;font-family: &amp;quot;times new roman&amp;quot;, serif;&quot;&gt;&lt;font style=&quot;font-size: 20px;&quot;&gt;/min/nodeD/mingroupsync/&lt;br style=&quot;&quot;&gt;request/nodeE/app1/&lt;font color=&quot;#cc0000&quot; style=&quot;&quot;&gt;&lt;b style=&quot;&quot;&gt;16&lt;/b&gt;&lt;/font&gt;&lt;/font&gt;&lt;/span&gt;&lt;span style=&quot;font-size: 16.5px&quot;&gt;&lt;/span&gt;" style="text;html=1;strokeColor=none;fillColor=none;align=center;verticalAlign=middle;whiteSpace=wrap;rounded=0;fontSize=16.5;strokeWidth=2;dashed=1;dashPattern=1 2;" vertex="1" parent="1">
          <mxGeometry x="763" y="300.52" width="330" height="53.48" as="geometry" />
        </mxCell>
        <mxCell id="HEigKu175-twUknDpUMa-50" value="&lt;span lang=&quot;EN-US&quot; style=&quot;font-family: &amp;quot;times new roman&amp;quot;, serif;&quot;&gt;&lt;font style=&quot;font-size: 20px;&quot;&gt;/min/nodeF/mingroupsync/&lt;br style=&quot;&quot;&gt;request/nodeE/app1/&lt;font color=&quot;#cc0000&quot; style=&quot;&quot;&gt;&lt;b style=&quot;&quot;&gt;16&lt;/b&gt;&lt;/font&gt;&lt;/font&gt;&lt;/span&gt;&lt;span style=&quot;font-size: 16.5px&quot;&gt;&lt;/span&gt;" style="text;html=1;strokeColor=none;fillColor=none;align=center;verticalAlign=middle;whiteSpace=wrap;rounded=0;fontSize=16.5;strokeWidth=2;dashed=1;dashPattern=1 2;" vertex="1" parent="1">
          <mxGeometry x="585" y="650" width="330" height="53.48" as="geometry" />
        </mxCell>
        <mxCell id="HEigKu175-twUknDpUMa-57" value="&lt;font style=&quot;font-size: 22px;&quot;&gt;Data Requesting&amp;nbsp;&lt;br&gt;Interest Packet&lt;/font&gt;" style="text;html=1;strokeColor=none;fillColor=none;align=center;verticalAlign=middle;whiteSpace=wrap;rounded=0;fontSize=16.5;fontColor=#000000;fontStyle=3;strokeWidth=2;dashed=1;dashPattern=1 2;" vertex="1" parent="1">
          <mxGeometry x="392.05" y="347.73" width="186.32" height="30" as="geometry" />
        </mxCell>
        <mxCell id="HEigKu175-twUknDpUMa-58" value="&lt;font style=&quot;font-size: 22px;&quot;&gt;Data Requesting&amp;nbsp;&lt;br&gt;Interest Packet&lt;/font&gt;" style="text;html=1;strokeColor=none;fillColor=none;align=center;verticalAlign=middle;whiteSpace=wrap;rounded=0;fontSize=16.5;fontColor=#000000;fontStyle=3;strokeWidth=2;dashed=1;dashPattern=1 2;" vertex="1" parent="1">
          <mxGeometry x="590" y="243.69000000000003" width="186.32" height="30" as="geometry" />
        </mxCell>
        <mxCell id="HEigKu175-twUknDpUMa-33" value="&lt;span lang=&quot;EN-US&quot; style=&quot;font-family: &amp;quot;times new roman&amp;quot;, serif;&quot;&gt;&lt;font style=&quot;font-size: 20px;&quot;&gt;/min/nodeB/mingroupsync/&lt;br style=&quot;&quot;&gt;request/nodeE/app1/&lt;font color=&quot;#cc0000&quot; style=&quot;&quot;&gt;&lt;b style=&quot;&quot;&gt;16&lt;/b&gt;&lt;/font&gt;&lt;/font&gt;&lt;/span&gt;&lt;span style=&quot;font-size: 16.5px&quot;&gt;&lt;/span&gt;" style="text;html=1;strokeColor=none;fillColor=none;align=center;verticalAlign=middle;whiteSpace=wrap;rounded=0;fontSize=16.5;strokeWidth=2;dashed=1;dashPattern=1 2;" vertex="1" parent="1">
          <mxGeometry x="538.0699999999999" y="414" width="330" height="53.48" as="geometry" />
        </mxCell>
        <mxCell id="HEigKu175-twUknDpUMa-60" value="&lt;font style=&quot;font-size: 22px;&quot;&gt;Data Requesting&amp;nbsp;&lt;br&gt;Interest Packet&lt;/font&gt;" style="text;html=1;strokeColor=none;fillColor=none;align=center;verticalAlign=middle;whiteSpace=wrap;rounded=0;fontSize=16.5;fontColor=#000000;fontStyle=3;strokeWidth=2;dashed=1;dashPattern=1 2;" vertex="1" parent="1">
          <mxGeometry x="609.9100000000001" y="377.73" width="186.32" height="30" as="geometry" />
        </mxCell>
        <mxCell id="HEigKu175-twUknDpUMa-62" value="&lt;font style=&quot;font-size: 22px;&quot;&gt;Data Requesting&amp;nbsp;&lt;br&gt;Interest Packet&lt;/font&gt;" style="text;html=1;strokeColor=none;fillColor=none;align=center;verticalAlign=middle;whiteSpace=wrap;rounded=0;fontSize=16.5;fontColor=#000000;fontStyle=3;strokeWidth=2;dashed=1;dashPattern=1 2;" vertex="1" parent="1">
          <mxGeometry x="600.37" y="100.00000000000003" width="186.32" height="30" as="geometry" />
        </mxCell>
        <mxCell id="HEigKu175-twUknDpUMa-64" value="&lt;font style=&quot;font-size: 22px;&quot;&gt;Data Requesting&amp;nbsp;&lt;br&gt;Interest Packet&lt;/font&gt;" style="text;html=1;strokeColor=none;fillColor=none;align=center;verticalAlign=middle;whiteSpace=wrap;rounded=0;fontSize=16.5;fontColor=#000000;fontStyle=3;strokeWidth=2;dashed=1;dashPattern=1 2;" vertex="1" parent="1">
          <mxGeometry x="748.5799999999999" y="476.52" width="186.32" height="30" as="geometry" />
        </mxCell>
      </root>
    </mxGraphModel>
  </diagram>
</mxfile>
